<?xml version="1.0" encoding="UTF-8"?>
<svg width="545px" height="545px" viewBox="0 0 545 545" version="1.1" xmlns="http://www.w3.org/2000/svg" xmlns:xlink="http://www.w3.org/1999/xlink">
    <!-- Generator: Sketch 53.2 (72643) - https://sketchapp.com -->
    <title>Document Search</title>
    <desc>Created with Sketch.</desc>
    <g id="Document-Search" stroke="none" stroke-width="1" fill="none" fill-rule="evenodd">
        <rect id="Rectangle" fill="#FFFFFF" x="0" y="0" width="545" height="545" rx="120"></rect>
        <path d="M120,0 L425,0 C491.27417,-1.21743675e-14 545,53.72583 545,120 L545,425 C545,491.27417 491.27417,545 425,545 L120,545 C53.72583,545 8.11624501e-15,491.27417 0,425 L0,120 C-8.11624501e-15,53.72583 53.72583,1.21743675e-14 120,0 Z M144,124 C132.954305,124 124,132.954305 124,144 L124,402 C124,413.045695 132.954305,422 144,422 L402,422 C413.045695,422 422,413.045695 422,402 L422,144 C422,132.954305 413.045695,124 402,124 L144,124 Z M350.429453,336.287318 L374.426407,360.284271 L360.284271,374.426407 L336.287318,350.429453 C319.048612,364.536347 297.012702,373 273,373 C217.771525,373 173,328.228475 173,273 C173,217.771525 217.771525,173 273,173 C328.228475,173 373,217.771525 373,273 C373,297.012702 364.536347,319.048612 350.429453,336.287318 Z M273,353 C317.18278,353 353,317.18278 353,273 C353,228.81722 317.18278,193 273,193 C228.81722,193 193,228.81722 193,273 C193,317.18278 228.81722,353 273,353 Z M188.758943,213 C185.993062,216.813064 183.479737,220.821244 181.243526,224.999985 L151,225 C147.686292,225 145,222.313708 145,219 C145,215.686292 147.686292,213 151,213 L188.758943,213 Z M169.004708,273 C169.001572,273.332962 169,273.666297 169,274 C169,277.715391 169.194828,281.385277 169.574825,285 L151,285 C147.686292,285 145,282.313708 145,279 C145,275.686292 147.686292,273 151,273 L169.004708,273 Z M171.12118,253 C170.316593,256.923958 169.73301,260.928484 169.384009,265 L151,265 C147.686292,265 145,262.313708 145,259 C145,255.686292 147.686292,253 151,253 L171.12118,253 Z M170.73157,293 C171.486406,297.088849 172.480416,301.093865 173.69855,305 L151,305 C147.686292,305 145,302.313708 145,299 C145,295.686292 147.686292,293 151,293 L170.73157,293 Z M177.393815,232.999997 C175.726117,236.883716 174.288142,240.889417 173.096989,245 L151,245 C147.686292,245 145,242.313708 145,239 C145,235.686292 147.686292,233 151,233 L177.393799,233 L177.393815,232.999997 Z M151,173 L187,173 C190.313708,173 193,175.686292 193,179 C193,182.313708 190.313708,185 187,185 L151,185 C147.686292,185 145,182.313708 145,179 C145,175.686292 147.686292,173 151,173 Z M151,193 L179,193 C182.313708,193 185,195.686292 185,199 C185,202.313708 182.313708,205 179,205 L151,205 C147.686292,205 145,202.313708 145,199 C145,195.686292 147.686292,193 151,193 Z M225.089968,214 L290,214 C295.522847,214 300,218.477153 300,224 C300,229.522847 295.522847,234 290,234 L208,234 C207.919065,234 207.838355,233.999039 207.75788,233.997126 C212.334228,226.358482 218.214057,219.590307 225.089968,214 Z M201.935778,246 L310,246 C315.522847,246 320,250.477153 320,256 C320,261.522847 315.522847,266 310,266 L197.318071,266 C197.955728,259.017305 199.537916,252.307687 201.935783,245.999999 Z M206.599047,310 L250,310 C255.522847,310 260,314.477153 260,320 C260,325.522847 255.522847,330 250,330 L222.729336,330 C216.287876,324.314649 210.81756,317.554433 206.599056,310.000016 L206.599047,310 Z M197.161851,278 L330,278 C335.522847,278 340,282.477153 340,288 C340,293.522847 335.522847,298 330,298 L201.207606,298 C199.004411,291.672413 197.614135,284.964055 197.161851,278 Z" id="Combined-Shape" fill="#FF4342"></path>
    </g>
</svg>